 http://www.imdb.com/title/tt0103772/







Format : MPEG-4
Format profile : Base Media / Version 2
Codec ID : mp42
File size : 903 MiB
Duration : 2h 8mn
Overall bit rate mode : Variable
Overall bit rate : 985 Kbps

Video
ID : 1
Format : AVC
Format/Info : Advanced Video Codec
Format profile : Main@L3.1
Format settings, CABAC : Yes
Format settings, ReFrames : 4 frames
Codec ID : avc1
Codec ID/Info : Advanced Video Coding
Duration : 2h 8mn
Bit rate mode : Variable
Bit rate : 650 Kbps
Width : 1 280 pixels
Height : 548 pixels
Display aspect ratio : 2.35:1
Frame rate mode : Variable
Frame rate : 23.976 fps
Minimum frame rate : 23.810 fps
Maximum frame rate : 24.390 fps
Color space : YUV
Chroma subsampling : 4:2:0
Bit depth : 8 bits
Scan type : Progressive
Bits/(Pixel*Frame) : 0.039
Stream size : 596 MiB (66%)
Writing library : x264 core 120
Color primaries : BT.709-5, BT.1361, IEC 61966-2-4, SMPTE RP177
Transfer characteristics : BT.709-5, BT.1361
Matrix coefficients : BT.709-5, BT.1361, IEC 61966-2-4 709, SMPTE RP177

Audio #1
ID : 2
Format : AAC
Format/Info : Advanced Audio Codec
Format profile : LC
Codec ID : 40
Duration : 2h 8mn
Bit rate mode : Variable
Bit rate : 162 Kbps
Maximum bit rate : 231 Kbps
Channel(s) : 2 channels
Channel positions : Front: L R
Sampling rate : 48.0 KHz
Compression mode : Lossy
Stream size : 149 MiB (16%)
Language : English
Encoded date : UTC 2012-09-24 00:33:07
Tagged date : UTC 2012-09-24 01:13:53

Audio #2
ID : 3
Format : AAC
Format/Info : Advanced Audio Codec
Format profile : LC
Codec ID : 40
Duration : 2h 8mn
Bit rate mode : Variable
Bit rate : 165 Kbps
Maximum bit rate : 236 Kbps
Channel(s) : 2 channels
Channel positions : Front: L R
Sampling rate : 48.0 KHz
Compression mode : Lossy
Stream size : 151 MiB (17%)
Language : Spanish
Encoded date : UTC 2012-09-24 00:33:07
Tagged date : UTC 2012-09-24 01:13:53

Text #1
ID : 4
Format : Timed text
Muxing mode : sbtl
Codec ID : tx3g
Duration : 2h 8mn
Bit rate mode : Variable
Bit rate : 203 bps
Stream size : 190 KiB (0%)
Language : English
Encoded date : UTC 2012-09-24 00:33:07
Tagged date : UTC 2012-09-24 01:13:53

Text #2
ID : 5
Format : Timed text
Muxing mode : sbtl
Codec ID : tx3g
Duration : 2h 8mn
Bit rate mode : Variable
Bit rate : 164 bps
Stream size : 154 KiB (0%)
Language : Spanish
Encoded date : UTC 2012-09-24 00:33:07
Tagged date : UTC 2012-09-24 01:13:53

Text #3
ID : 6
Format : Timed text
Muxing mode : sbtl
Codec ID : tx3g
Duration : 2h 3mn
Bit rate mode : Variable
Bit rate : 216 bps
Stream size : 195 KiB (0%)
Language : French
Encoded date : UTC 2012-09-24 00:33:07
Tagged date : UTC 2012-09-24 01:13:07

Text #4
ID : 7
Format : Timed text
Muxing mode : sbtl
Codec ID : tx3g
Duration : 2h 8mn
Bit rate mode : Variable
Bit rate : 178 bps
Stream size : 167 KiB (0%)
Language : German
Encoded date : UTC 2012-09-24 00:33:07
Tagged date : UTC 2012-09-24 01:13:53

Text #5
ID : 8
Format : Apple text
Codec ID : text
Duration : 2h 8mn
Bit rate mode : Constant
Bit rate : 0 bps
Stream size : 416 Bytes (0%)









If you have any requests please leave them at my Suprbay forum, from now on i 

will disregard any requests left on here


  https://forum.suprbay.org/showthread.php?tid=130110






                                ENCODED BY THE HAMBURGLER


Please Comment On Quality And Seed

Sharing Is Caring
